<mxfile host="app.diagrams.net" modified="2021-07-20T11:16:39.056Z" agent="5.0 (Windows NT 10.0; Win64; x64) AppleWebKit/537.36 (KHTML, like Gecko) Chrome/91.0.4472.124 Safari/537.36" etag="dwPVgRobuwS_NE_5EY75" version="14.9.0" type="github">
  <diagram id="R2lEEEUBdFMjLlhIrx00" name="Page-1">
    <mxGraphModel dx="868" dy="450" grid="1" gridSize="10" guides="1" tooltips="1" connect="1" arrows="1" fold="1" page="1" pageScale="1" pageWidth="850" pageHeight="1100" math="0" shadow="0" extFonts="Permanent Marker^https://fonts.googleapis.com/css?family=Permanent+Marker">
      <root>
        <mxCell id="0" />
        <mxCell id="1" parent="0" />
        <mxCell id="me_7znmtpkGLx6qGGruu-2" value="Json local server" style="shape=cylinder3;whiteSpace=wrap;html=1;boundedLbl=1;backgroundOutline=1;size=15;" vertex="1" parent="1">
          <mxGeometry x="620" y="350" width="80" height="90" as="geometry" />
        </mxCell>
        <mxCell id="me_7znmtpkGLx6qGGruu-9" value="Test Report&amp;nbsp;" style="shape=document;whiteSpace=wrap;html=1;boundedLbl=1;" vertex="1" parent="1">
          <mxGeometry x="420" y="370" width="110" height="80" as="geometry" />
        </mxCell>
        <mxCell id="me_7znmtpkGLx6qGGruu-17" value="" style="edgeStyle=orthogonalEdgeStyle;rounded=0;orthogonalLoop=1;jettySize=auto;html=1;" edge="1" parent="1" source="me_7znmtpkGLx6qGGruu-11" target="me_7znmtpkGLx6qGGruu-12">
          <mxGeometry relative="1" as="geometry">
            <Array as="points">
              <mxPoint x="430" y="200" />
              <mxPoint x="430" y="200" />
            </Array>
          </mxGeometry>
        </mxCell>
        <mxCell id="me_7znmtpkGLx6qGGruu-11" value="Cucuber (BDD)" style="whiteSpace=wrap;html=1;aspect=fixed;" vertex="1" parent="1">
          <mxGeometry x="260" y="160" width="90" height="90" as="geometry" />
        </mxCell>
        <mxCell id="me_7znmtpkGLx6qGGruu-12" value="Step File&amp;nbsp;" style="whiteSpace=wrap;html=1;aspect=fixed;" vertex="1" parent="1">
          <mxGeometry x="420" y="155" width="90" height="90" as="geometry" />
        </mxCell>
        <mxCell id="me_7znmtpkGLx6qGGruu-14" value="Wire mock" style="shape=parallelogram;html=1;strokeWidth=2;perimeter=parallelogramPerimeter;whiteSpace=wrap;rounded=1;arcSize=12;size=0.23;" vertex="1" parent="1">
          <mxGeometry x="570" y="155" width="130" height="85" as="geometry" />
        </mxCell>
        <mxCell id="me_7znmtpkGLx6qGGruu-18" value="" style="endArrow=classic;startArrow=classic;html=1;entryX=0.589;entryY=1.022;entryDx=0;entryDy=0;entryPerimeter=0;" edge="1" parent="1" source="me_7znmtpkGLx6qGGruu-9" target="me_7znmtpkGLx6qGGruu-12">
          <mxGeometry width="50" height="50" relative="1" as="geometry">
            <mxPoint x="480" y="355" as="sourcePoint" />
            <mxPoint x="540" y="245" as="targetPoint" />
            <Array as="points" />
          </mxGeometry>
        </mxCell>
        <mxCell id="me_7znmtpkGLx6qGGruu-24" value="" style="endArrow=classic;startArrow=classic;html=1;entryX=0;entryY=0.5;entryDx=0;entryDy=0;" edge="1" parent="1" source="me_7znmtpkGLx6qGGruu-12" target="me_7znmtpkGLx6qGGruu-14">
          <mxGeometry width="50" height="50" relative="1" as="geometry">
            <mxPoint x="530" y="230" as="sourcePoint" />
            <mxPoint x="580" y="180" as="targetPoint" />
          </mxGeometry>
        </mxCell>
        <mxCell id="me_7znmtpkGLx6qGGruu-26" value="" style="endArrow=classic;startArrow=classic;html=1;entryX=0.5;entryY=0;entryDx=0;entryDy=0;entryPerimeter=0;exitX=1;exitY=1;exitDx=0;exitDy=0;" edge="1" parent="1" source="me_7znmtpkGLx6qGGruu-12" target="me_7znmtpkGLx6qGGruu-2">
          <mxGeometry width="50" height="50" relative="1" as="geometry">
            <mxPoint x="510" y="330" as="sourcePoint" />
            <mxPoint x="560" y="280" as="targetPoint" />
          </mxGeometry>
        </mxCell>
      </root>
    </mxGraphModel>
  </diagram>
</mxfile>
